<svg xmlns="http://www.w3.org/2000/svg" width="1117" height="768"><g stroke="#449FDB"><path d="M16 0v768" opacity=".3"/><path d="M32 0v768"/><path d="M48 0v768" opacity=".3"/><path d="M64 0v768"/><path d="M80 0v768" opacity=".3"/><path d="M96 0v768"/><path d="M112 0v768" opacity=".3"/><path d="M128 0v768"/><path d="M144 0v768" opacity=".3"/><path d="M160 0v768"/><path d="M176 0v768" opacity=".3"/><path d="M192 0v768"/><path d="M208 0v768" opacity=".3"/><path d="M224 0v768"/><path d="M240 0v768" opacity=".3"/><path d="M256 0v768"/><path d="M272 0v768" opacity=".3"/><path d="M288 0v768"/><path d="M304 0v768" opacity=".3"/><path d="M320 0v768"/><path d="M336 0v768" opacity=".3"/><path d="M352 0v768"/><path d="M368 0v768" opacity=".3"/><path d="M384 0v768"/><path d="M400 0v768" opacity=".3"/><path d="M416 0v768"/><path d="M432 0v768" opacity=".3"/><path d="M448 0v768"/><path d="M464 0v768" opacity=".3"/><path d="M480 0v768"/><path d="M496 0v768" opacity=".3"/><path d="M512 0v768"/><path d="M528 0v768" opacity=".3"/><path d="M544 0v768"/><path d="M560 0v768" opacity=".3"/><path d="M576 0v768"/><path d="M592 0v768" opacity=".3"/><path d="M608 0v768"/><path d="M624 0v768" opacity=".3"/><path d="M640 0v768"/><path d="M656 0v768" opacity=".3"/><path d="M672 0v768"/><path d="M688 0v768" opacity=".3"/><path d="M704 0v768"/><path d="M720 0v768" opacity=".3"/><path d="M736 0v768"/><path d="M752 0v768" opacity=".3"/><path d="M768 0v768"/><path d="M784 0v768" opacity=".3"/><path d="M800 0v768"/><path d="M816 0v768" opacity=".3"/><path d="M832 0v768"/><path d="M848 0v768" opacity=".3"/><path d="M864 0v768"/><path d="M880 0v768" opacity=".3"/><path d="M896 0v768"/><path d="M912 0v768" opacity=".3"/><path d="M928 0v768"/><path d="M944 0v768" opacity=".3"/><path d="M960 0v768"/><path d="M976 0v768" opacity=".3"/><path d="M992 0v768"/><path d="M1008 0v768" opacity=".3"/><path d="M1024 0v768"/><path d="M1040 0v768" opacity=".3"/><path d="M1056 0v768"/><path d="M1072 0v768" opacity=".3"/><path d="M1088 0v768"/><path d="M1104 0v768M0 16h1117" opacity=".3"/><path d="M0 32h1117"/><path d="M0 48h1117" opacity=".3"/><path d="M0 64h1117"/><path d="M0 80h1117" opacity=".3"/><path d="M0 96h1117"/><path d="M0 112h1117" opacity=".3"/><path d="M0 128h1117"/><path d="M0 144h1117" opacity=".3"/><path d="M0 160h1117"/><path d="M0 176h1117" opacity=".3"/><path d="M0 192h1117"/><path d="M0 208h1117" opacity=".3"/><path d="M0 224h1117"/><path d="M0 240h1117" opacity=".3"/><path d="M0 256h1117"/><path d="M0 272h1117" opacity=".3"/><path d="M0 288h1117"/><path d="M0 304h1117" opacity=".3"/><path d="M0 320h1117"/><path d="M0 336h1117" opacity=".3"/><path d="M0 352h1117"/><path d="M0 368h1117" opacity=".3"/><path d="M0 384h1117"/><path d="M0 400h1117" opacity=".3"/><path d="M0 416h1117"/><path d="M0 432h1117" opacity=".3"/><path d="M0 448h1117"/><path d="M0 464h1117" opacity=".3"/><path d="M0 480h1117"/><path d="M0 496h1117" opacity=".3"/><path d="M0 512h1117"/><path d="M0 528h1117" opacity=".3"/><path d="M0 544h1117"/><path d="M0 560h1117" opacity=".3"/><path d="M0 576h1117"/><path d="M0 592h1117" opacity=".3"/><path d="M0 608h1117"/><path d="M0 624h1117" opacity=".3"/><path d="M0 640h1117"/><path d="M0 656h1117" opacity=".3"/><path d="M0 672h1117"/><path d="M0 688h1117" opacity=".3"/><path d="M0 704h1117"/><path d="M0 720h1117" opacity=".3"/><path d="M0 736h1117"/><path d="M0 752h1117" opacity=".3"/></g><path fill="none" stroke="#000" stroke-linecap="round" stroke-linejoin="round" stroke-width="104.727" d="M47.045 699.686h1031.16M47.045 374.763h1031.16M47.045 49.84h1031.16"/></svg>